<svg width="24.000000" height="24.000000" viewBox="0 0 24 24" fill="none" xmlns="http://www.w3.org/2000/svg" xmlns:xlink="http://www.w3.org/1999/xlink">
	<desc>
			Created with Pixso.
	</desc>
	<defs/>
	<rect id="Edit Icon" width="24.000000" height="24.000000" transform="translate(-0.666626 0.000000)" fill="#FFFFFF" fill-opacity="0"/>
	<path id="Vector" d="M-0.67 19.28L-0.67 23.33C-0.67 23.7 -0.38 24 -6.11e-5 24L4.05 24C4.22 24 4.39 23.93 4.51 23.8L19.07 9.25L14.07 4.25L-0.47 18.8C-0.6 18.93 -0.67 19.09 -0.67 19.28ZM22.94 5.38C23.06 5.26 23.16 5.11 23.23 4.95C23.29 4.79 23.33 4.62 23.33 4.44C23.33 4.27 23.29 4.1 23.23 3.94C23.16 3.77 23.06 3.63 22.94 3.5L19.82 0.38C19.7 0.26 19.55 0.16 19.39 0.1C19.23 0.03 19.05 0 18.88 0C18.7 0 18.53 0.03 18.37 0.1C18.21 0.16 18.06 0.26 17.94 0.38L15.5 2.82L20.5 7.82L22.94 5.38Z" fill="#EEEEEE" fill-opacity="1.000000" fill-rule="nonzero"/>
</svg>
