<svg width="24.000000" height="20.000000" viewBox="0 0 24 20" fill="none" xmlns="http://www.w3.org/2000/svg" xmlns:xlink="http://www.w3.org/1999/xlink">
	<desc>
			Created with Pixso.
	</desc>
	<defs/>
	<rect id="Folder Icon" width="24.000000" height="19.200001" fill="#FFFFFF" fill-opacity="0"/>
	<path id="Vector" d="M2.4 19.2C1.73 19.2 1.17 18.96 0.7 18.49C0.23 18.02 -0.01 17.45 0 16.79L0 2.39C0 1.74 0.23 1.17 0.7 0.7C1.17 0.23 1.74 -0.01 2.4 0L9.59 0L12 2.39L21.6 2.39C22.26 2.39 22.82 2.63 23.29 3.1C23.76 3.57 24 4.14 24 4.8L24 16.79C24 17.45 23.76 18.02 23.29 18.49C22.82 18.96 22.25 19.2 21.6 19.2L2.4 19.2Z" fill="#333333" fill-opacity="1.000000" fill-rule="nonzero"/>
</svg>
