<svg width="16.000000" height="16.000000" viewBox="0 0 16 16" fill="none" xmlns="http://www.w3.org/2000/svg" xmlns:xlink="http://www.w3.org/1999/xlink">
	<desc>
			Created with Pixso.
	</desc>
	<defs/>
	<path id="Vector" d="M14.85 8.64L9.14 8.64L9.14 14.35C9.14 14.66 9.02 14.95 8.8 15.16C8.59 15.37 8.3 15.5 8 15.5C7.69 15.5 7.4 15.37 7.19 15.16C6.97 14.95 6.85 14.66 6.85 14.35L6.85 8.64L1.14 8.64C0.83 8.64 0.54 8.52 0.33 8.3C0.12 8.09 0 7.8 0 7.5C0 7.19 0.12 6.9 0.33 6.69C0.54 6.47 0.83 6.35 1.14 6.35L6.85 6.35L6.85 0.64C6.85 0.33 6.97 0.04 7.19 -0.17C7.4 -0.38 7.69 -0.5 8 -0.5C8.3 -0.5 8.59 -0.38 8.8 -0.17C9.02 0.04 9.14 0.33 9.14 0.64L9.14 6.35L14.85 6.35C15.16 6.35 15.45 6.47 15.66 6.69C15.87 6.9 16 7.19 16 7.5C16 7.8 15.87 8.09 15.66 8.3C15.45 8.52 15.16 8.64 14.85 8.64Z" fill="#EEEEEE" fill-opacity="1.000000" fill-rule="nonzero"/>
</svg>
