<svg width="18.000000" height="11.000000" viewBox="0 0 18 11" fill="none" xmlns="http://www.w3.org/2000/svg" xmlns:xlink="http://www.w3.org/1999/xlink">
	<desc>
			Created with Pixso.
	</desc>
	<defs/>
	<rect id="Sorting Icon" width="18.000000" height="10.200000" fill="#FFFFFF" fill-opacity="0"/>
	<path id="Vector" d="M17.1 1.79L0.9 1.79C0.66 1.79 0.43 1.7 0.26 1.53C0.09 1.36 0 1.13 0 0.89C0 0.66 0.09 0.43 0.26 0.26C0.43 0.09 0.66 0 0.9 0L17.1 0C17.33 0 17.56 0.09 17.73 0.26C17.9 0.43 18 0.66 18 0.89C18 1.13 17.9 1.36 17.73 1.53C17.56 1.7 17.33 1.79 17.1 1.79ZM14.1 6L3.9 6C3.66 6 3.43 5.9 3.26 5.73C3.09 5.56 3 5.33 3 5.1C3 4.86 3.09 4.63 3.26 4.46C3.43 4.29 3.66 4.2 3.9 4.2L14.1 4.2C14.33 4.2 14.56 4.29 14.73 4.46C14.9 4.63 15 4.86 15 5.1C15 5.33 14.9 5.56 14.73 5.73C14.56 5.9 14.33 6 14.1 6ZM10.5 10.2L7.5 10.2C7.26 10.2 7.03 10.1 6.86 9.93C6.69 9.76 6.59 9.53 6.59 9.29C6.59 9.06 6.69 8.83 6.86 8.66C7.03 8.49 7.26 8.39 7.5 8.39L10.5 8.39C10.73 8.39 10.96 8.49 11.13 8.66C11.3 8.83 11.4 9.06 11.4 9.29C11.4 9.53 11.3 9.76 11.13 9.93C10.96 10.1 10.73 10.2 10.5 10.2Z" fill="#EEEEEE" fill-opacity="1.000000" fill-rule="nonzero"/>
</svg>
