<svg width="86.000000" height="37.000000" viewBox="0 0 86 37" fill="none" xmlns="http://www.w3.org/2000/svg" xmlns:xlink="http://www.w3.org/1999/xlink">
	<desc>
			Created with Pixso.
	</desc>
	<defs/>
	<rect id="Sorting option/type2" rx="12.000000" width="86.000000" height="37.000000" fill="#2F2F2F" fill-opacity="1.000000"/>
	<rect id="Sorting Icon" width="18.000000" height="10.200000" transform="translate(20.000000 12.000000)" fill="#FFFFFF" fill-opacity="0"/>
	<path id="Vector" d="M37.09 13.8L20.9 13.8C20.66 13.8 20.43 13.7 20.26 13.53C20.09 13.36 20 13.13 20 12.9C20 12.66 20.09 12.43 20.26 12.26C20.43 12.09 20.66 12 20.9 12L37.09 12C37.33 12 37.56 12.09 37.73 12.26C37.9 12.43 38 12.66 38 12.9C38 13.13 37.9 13.36 37.73 13.53C37.56 13.7 37.33 13.8 37.09 13.8ZM34.09 18L23.9 18C23.66 18 23.43 17.9 23.26 17.73C23.09 17.56 23 17.33 23 17.1C23 16.86 23.09 16.63 23.26 16.46C23.43 16.29 23.66 16.2 23.9 16.2L34.09 16.2C34.33 16.2 34.56 16.29 34.73 16.46C34.9 16.63 35 16.86 35 17.1C35 17.33 34.9 17.56 34.73 17.73C34.56 17.9 34.33 18 34.09 18ZM30.5 22.2L27.5 22.2C27.26 22.2 27.03 22.1 26.86 21.93C26.69 21.76 26.6 21.53 26.6 21.3C26.6 21.06 26.69 20.83 26.86 20.66C27.03 20.49 27.26 20.4 27.5 20.4L30.5 20.4C30.73 20.4 30.96 20.49 31.13 20.66C31.3 20.83 31.4 21.06 31.4 21.3C31.4 21.53 31.3 21.76 31.13 21.93C30.96 22.1 30.73 22.2 30.5 22.2Z" fill="#EEEEEE" fill-opacity="1.000000" fill-rule="nonzero"/>
	<path id="All" d="M60.07 24.66Q60.81 25.14 61.93 25.14Q62.84 25.14 63.54 24.77Q63.85 24.61 64.1 24.38Q64.41 24.09 64.63 23.71Q65.04 23.01 65.04 22.05Q65.04 20.91 64.54 20.06Q64.51 20 64.47 19.95Q63.91 19.06 63.18 18.42L60.99 16.5Q60.54 16.1 60.34 15.72Q60.14 15.33 60.14 14.74Q60.14 14.08 60.47 13.72Q60.49 13.7 60.52 13.67Q60.55 13.65 60.58 13.62Q60.95 13.32 61.56 13.32Q62.23 13.32 62.59 13.64Q62.64 13.69 62.69 13.74Q62.98 14.05 63.1 14.51Q63.24 15.04 63.29 15.68L64.83 15.27Q64.75 14.42 64.51 13.79Q64.28 13.16 63.89 12.74Q63.82 12.67 63.75 12.6Q63.4 12.29 62.91 12.12Q62.33 11.92 61.56 11.92Q60.35 11.92 59.58 12.51Q59.45 12.6 59.34 12.71Q59.22 12.83 59.11 12.96Q58.52 13.71 58.52 14.92Q58.52 15.89 58.83 16.55Q59.13 17.22 59.77 17.78L61.95 19.7Q62.55 20.24 62.95 20.78Q63.36 21.32 63.36 22.19Q63.36 22.93 63 23.32Q62.96 23.36 62.92 23.4Q62.57 23.71 61.93 23.71Q61.37 23.71 61.01 23.45Q60.93 23.38 60.86 23.31Q60.48 22.9 60.31 22.26Q60.14 21.62 60.09 20.93L58.49 21.36Q58.55 22.48 58.94 23.33Q59.19 23.89 59.61 24.3Q59.82 24.5 60.07 24.66ZM67.55 24.57Q68.31 25.14 69.69 25.14Q70.97 25.14 71.67 24.64Q71.88 24.49 72.05 24.31Q72.46 23.87 72.67 23.23Q72.95 22.32 72.95 21.14L72.95 20.18L71.24 20.18L71.24 21.14Q71.24 21.91 71.16 22.48Q71.08 23.06 70.76 23.39Q70.44 23.71 69.71 23.71Q69.08 23.71 68.71 23.48Q68.35 23.23 68.19 22.67Q68.03 22.1 68.03 21.12L68.03 15.99Q68.03 15.19 68.13 14.59Q68.24 13.99 68.59 13.66Q68.94 13.33 69.71 13.33Q70.46 13.33 70.78 13.64Q70.79 13.65 70.8 13.66Q71.1 13.96 71.17 14.49Q71.24 15.04 71.24 15.76L71.24 16.67L72.95 16.67L72.95 15.65Q72.95 14.48 72.64 13.65Q72.44 13.12 72.08 12.74Q71.87 12.53 71.62 12.37Q70.91 11.92 69.69 11.92Q68.31 11.92 67.55 12.46Q67.34 12.61 67.17 12.79Q66.71 13.27 66.5 13.97Q66.2 14.95 66.2 16.26L66.2 20.83Q66.2 22.03 66.5 23.01Q66.7 23.67 67.11 24.15Q67.31 24.38 67.55 24.57ZM53.05 12.03L50.3 25L52 25L52.62 21.73L55.26 21.73L55.85 25L57.56 25L54.8 12.03L53.05 12.03ZM55.02 20.44L52.86 20.44L53.93 14.6L55.02 20.44Z" fill="#FFFFFF" fill-opacity="1.000000" fill-rule="evenodd"/>
</svg>
