<svg width="86.000000" height="37.000000" viewBox="0 0 86 37" fill="none" xmlns="http://www.w3.org/2000/svg" xmlns:xlink="http://www.w3.org/1999/xlink">
	<desc>
			Created with Pixso.
	</desc>
	<defs/>
	<rect id="Sorting option/type2" rx="12.000000" width="86.000000" height="37.000000" fill="#2F2F2F" fill-opacity="1.000000"/>
	<rect id="Sorting Icon" width="18.000000" height="10.200000" transform="translate(20.000000 12.000000)" fill="#FFFFFF" fill-opacity="0"/>
	<path id="Vector" d="M37.09 13.8L20.9 13.8C20.66 13.8 20.43 13.7 20.26 13.53C20.09 13.36 20 13.13 20 12.9C20 12.66 20.09 12.43 20.26 12.26C20.43 12.09 20.66 12 20.9 12L37.09 12C37.33 12 37.56 12.09 37.73 12.26C37.9 12.43 38 12.66 38 12.9C38 13.13 37.9 13.36 37.73 13.53C37.56 13.7 37.33 13.8 37.09 13.8ZM34.09 18L23.9 18C23.66 18 23.43 17.9 23.26 17.73C23.09 17.56 23 17.33 23 17.1C23 16.86 23.09 16.63 23.26 16.46C23.43 16.29 23.66 16.2 23.9 16.2L34.09 16.2C34.33 16.2 34.56 16.29 34.73 16.46C34.9 16.63 35 16.86 35 17.1C35 17.33 34.9 17.56 34.73 17.73C34.56 17.9 34.33 18 34.09 18ZM30.5 22.2L27.5 22.2C27.26 22.2 27.03 22.1 26.86 21.93C26.69 21.76 26.6 21.53 26.6 21.3C26.6 21.06 26.69 20.83 26.86 20.66C27.03 20.49 27.26 20.4 27.5 20.4L30.5 20.4C30.73 20.4 30.96 20.49 31.13 20.66C31.3 20.83 31.4 21.06 31.4 21.3C31.4 21.53 31.3 21.76 31.13 21.93C30.96 22.1 30.73 22.2 30.5 22.2Z" fill="#EEEEEE" fill-opacity="1.000000" fill-rule="nonzero"/>
	<path id="All" d="M53.05 12.03L50.3 25L52 25L52.62 21.73L55.26 21.73L55.85 25L57.56 25L54.8 12.03L53.05 12.03ZM58.89 12.03L58.89 25L60.6 25L60.6 12.03L58.89 12.03ZM62.55 12.03L62.55 25L64.27 25L64.27 12.03L62.55 12.03ZM55.02 20.44L52.86 20.44L53.93 14.6L55.02 20.44Z" fill="#FFFFFF" fill-opacity="1.000000" fill-rule="evenodd"/>
</svg>
